#!OML:ASF H:\ColoradoDance\Project 1\Capture day 1\Session 8\male.ASF
:FULLY-SPECIFIED
:DEGREES
16
upperback -3.188150 -2.179330 0.801329
rfoot -6.164700 -6.869320
lradius 25.561300
lthumb 3.056210 56.457199
rradius 20.962099
lwrist -14.646300
rhand -56.797401 7.449170
rhumerus -51.604900 -11.534200 -72.563599
lowerneck -4.093040 -0.257637 5.079980
lhand -23.400600 26.499399
ltibia 28.045500
head 2.646850 -0.123724 -3.169300
rwrist 11.988200
lfingers 7.125020
rtoes -9.177250
lowerback 1.895470 -1.580620 -0.423186
rfingers 7.125020
lclavicle -0.000000 -0.000000
upperneck 5.938580 -0.141719 -6.844260
rfemur -35.657001 -7.821120 16.851299
thorax -4.299940 -1.089880 1.187090
rclavicle -0.000000 -0.000000
rtibia 56.002300
lfoot -18.604799 11.779600
lhumerus -36.928299 1.768520 80.786301
rthumb -29.098101 -380.298004
root 29.316500 19.238600 -18.472799 184.764999 -0.472661 179.772003
ltoes 5.603700
lfemur -10.123300 -7.012340 -23.085501
17
upperback -3.679520 -0.627771 0.802742
rfoot 16.812201 -5.307980
lradius 27.592899
lthumb 1.803020 56.979801
rradius 25.283701
lwrist -12.409600
rhand -55.181801 22.249500
rhumerus -51.239799 -9.120790 -77.143501
lowerneck -5.138310 -0.142480 4.814990
lhand -24.698200 27.007700
ltibia 27.516100
head 3.284580 -0.055553 -2.883190
rwrist 9.190260
lfingers 7.125020
rtoes 13.448500
lowerback 1.357720 -0.598541 0.700343
rfingers 7.125020
lclavicle -0.000000 -0.000000
upperneck 7.230010 -0.007487 -6.065700
rfemur -10.187300 -1.436480 12.691000
thorax -4.552270 -0.272425 0.465306
rclavicle -0.000000 -0.000000
rtibia 62.927399
lfoot -11.898000 15.005200
lhumerus -42.790901 2.304730 79.849899
rthumb -27.554100 -365.753998
root 29.535400 19.444000 -16.302999 184.307007 3.416520 180.992996
ltoes 8.403160
lfemur -16.577101 -7.388630 -20.005100
18
upperback -4.599560 1.119220 0.500015
rfoot 11.853900 5.339790
lradius 30.809000
lthumb 0.503397 57.093800
rradius 35.112499
lwrist -7.252900
rhand -52.266602 26.906300
rhumerus -45.859299 -5.705130 -79.801399
lowerneck -5.786030 0.212121 4.897950
lhand -26.043800 27.114700
ltibia 29.073500
head 3.209690 0.120751 -2.891770
rwrist 7.176290
lfingers 7.125020
rtoes 1.142920
lowerback 0.272494 0.634577 1.773370
rfingers 7.125020
lclavicle -0.000000 0.000000
upperneck 6.571170 0.386921 -6.102990
rfemur 7.962050 7.669240 15.409900
thorax -4.877700 0.579336 -0.533567
rclavicle -0.000000 0.000000
rtibia 31.661100
lfoot -8.061970 17.816500
lhumerus -45.058399 3.970790 75.937698
rthumb -24.763000 -361.510986
root 30.078300 19.280399 -13.659200 187.453995 7.284100 181.822006
ltoes 9.511960
lfemur -29.219400 -8.512390 -13.823700
19
upperback -4.004350 1.161500 0.706273
rfoot -18.743799 -6.487230
lradius 32.980202
lthumb -0.467126 57.816200
rradius 43.497299
lwrist -6.649860
rhand -34.854000 -4.916330
rhumerus -39.767799 -1.392160 -81.684502
lowerneck -4.421460 0.930584 4.494960
lhand -27.048700 27.837000
ltibia 22.246201
head 1.988020 0.564202 -2.526800
rwrist 4.574900
lfingers 7.125020
rtoes -26.739901
lowerback 1.675770 0.689968 1.799240
rfingers 7.125020
lclavicle -0.000000 -0.000000
upperneck 3.583040 1.242990 -5.507420
rfemur 3.285470 10.256200 23.472401
thorax -5.056710 0.576664 -0.352212
rclavicle -0.000000 -0.000000
rtibia 23.833900
lfoot -15.241100 23.092699
lhumerus -45.206501 5.005460 72.272400
rthumb -8.003900 -394.744995
root 31.110100 18.724001 -10.007100 190.865005 9.347110 183.358002
ltoes -3.808290
lfemur -40.228001 -14.351700 0.301940
20
upperback -3.261820 0.681660 0.708946
rfoot -24.230801 -8.449780
lradius 25.638300
lthumb 1.623920 52.727501
rradius 32.643200
lwrist -12.724400
rhand -30.539200 21.390400
rhumerus -42.703499 -8.205300 -75.989304
lowerneck -4.424480 1.816400 6.605840
lhand -24.883699 22.753901
ltibia 26.424400
head 1.982470 1.114820 -3.426550
rwrist 5.474660
lfingers 7.125020
rtoes -6.755190
lowerback 2.090460 0.317428 3.275770
rfingers 7.125020
lclavicle 0.000000 0.000000
upperneck 3.130110 2.354970 -7.076060
rfemur -8.401880 7.904380 28.273600
thorax -4.514340 0.277311 -1.146460
rclavicle 0.000000 0.000000
rtibia 27.698900
lfoot -14.770900 13.885000
lhumerus -46.722500 9.551320 69.940498
rthumb -3.838190 -368.554993
root 31.994801 18.768200 -6.842780 191.242004 10.132600 184.429993
ltoes -2.539750
lfemur -40.145302 -12.802400 2.356250
21
upperback -3.644330 -0.209666 0.314358
rfoot -20.783800 -7.427030
lradius 22.378300
lthumb 8.718930 53.588001
rradius 21.747999
lwrist -16.649700
rhand -25.175100 -6.976620
rhumerus -56.238300 -7.746340 -70.836403
lowerneck -4.919530 2.473530 7.308300
lhand -17.535200 23.788099
ltibia 49.518299
head 2.314260 1.541840 -3.875700
rwrist 11.592300
lfingers 7.125020
rtoes 1.999630
lowerback 1.182600 -0.293958 1.941950
rfingers 7.125020
lclavicle -0.000000 0.000000
upperneck 3.501800 3.241350 -8.043240
rfemur -17.159700 6.023810 27.584499
thorax -4.426640 -0.122189 -0.756416
rclavicle -0.000000 0.000000
rtibia 32.677601
lfoot -12.393700 -7.188480
lhumerus -41.215500 15.884300 60.150101
rthumb 1.342480 -396.951996
root 32.483501 19.030800 -4.778580 190.207993 10.309000 181.595001
ltoes 5.793910
lfemur -28.425501 -0.947973 -11.129900
22
upperback -4.407450 -2.549180 1.069220
rfoot -14.813400 -6.444630
lradius 41.023701
lthumb 0.135467 62.274601
rradius 20.175501
lwrist -5.450460
rhand -24.177200 -2.993970
rhumerus -62.716702 -14.157900 -66.958199
lowerneck -4.962100 1.801890 6.201550
lhand -26.424801 32.294899
ltibia 46.810902
head 2.664680 1.133120 -3.183220
rwrist 16.883301
lfingers 7.125020
rtoes 6.449290
lowerback -1.720590 -2.089470 0.406831
rfingers 7.125020
lclavicle -0.000000 0.000000
upperneck 4.931670 2.390430 -6.554560
rfemur -23.489599 -1.543250 29.431000
thorax -3.537000 -1.174960 0.901793
rclavicle -0.000000 0.000000
rtibia 30.640800
lfoot 8.255720 -1.916940
lhumerus -27.385900 2.321410 64.651703
rthumb 2.306180 -392.960999
root 32.816002 19.224600 -2.961970 190.744995 4.355300 180.770004
ltoes 7.709830
lfemur -5.175310 9.378980 -15.651300
23
upperback -4.898130 -5.038150 1.333570
rfoot -10.464300 -10.906900
lradius 55.262402
lthumb -3.894520 56.778999
rradius 29.943399
lwrist -6.643340
rhand -33.873100 -1.984270
rhumerus -54.498402 -12.064300 -78.322899
lowerneck -6.166130 -0.406835 4.079020
lhand -30.597601 26.834900
ltibia 25.381800
head 2.726600 -0.356460 -2.168260
rwrist 7.401020
lfingers 7.125020
rtoes 9.417320
lowerback -2.410890 -3.593380 -2.242930
rfingers 7.125020
lclavicle -0.000000 -0.000000
upperneck 5.172670 -0.603645 -4.362680
rfemur -35.868801 -9.643670 30.011299
thorax -3.391490 -2.531160 2.648860
rclavicle -0.000000 -0.000000
rtibia 31.827600
lfoot 5.884400 28.913200
lhumerus -24.264099 -14.640100 79.972504
rthumb -7.057100 -391.846985
root 32.775200 19.085100 -0.512451 192.983002 -7.744570 179.195007
ltoes 19.865299
lfemur 7.264190 6.660140 -18.704700
24
upperback -4.339620 -6.161980 1.653810
rfoot -53.453201 -31.247999
lradius 46.918598
lthumb 3.982130 54.077202
rradius 37.003899
lwrist -7.978110
rhand -36.408501 -1.348460
rhumerus -50.799900 -8.949980 -77.885002
lowerneck -6.943860 -1.972320 3.372160
lhand -22.441799 24.134701
ltibia 19.447901
head 3.372620 -1.468160 -2.722880
rwrist 2.236630
lfingers 7.125020
rtoes 21.628099
lowerback 0.647291 -4.543670 -0.555806
rfingers 7.125020
lclavicle -0.000000 -0.000000
upperneck 6.919530 -2.584430 -5.965530
rfemur -40.522999 5.773100 12.378800
thorax -4.601210 -3.067700 2.295210
rclavicle -0.000000 -0.000000
rtibia 30.782499
lfoot -25.679399 30.745600
lhumerus -32.539200 -20.906700 97.242104
rthumb -9.503920 -391.114014
root 32.707001 18.622101 2.815550 192.246002 -33.929798 178.378006
ltoes 2.701060
lfemur 1.835100 -0.660108 -19.200300
25
upperback -2.752670 -2.833010 -0.032002
rfoot -21.945601 -30.274900
lradius 33.008202
lthumb 1.239780 53.818401
rradius 25.723499
lwrist -14.318800
rhand -33.834400 1.604610
rhumerus -51.423000 -7.632820 -77.028900
lowerneck -5.275070 0.575246 4.707570
lhand -25.281401 23.842300
ltibia 22.932100
head 3.428250 0.237374 -2.964080
rwrist 6.290900
lfingers 7.125020
rtoes -3.480930
lowerback 2.101970 -2.040650 -1.895380
rfingers 7.125020
lclavicle 0.000000 -0.000000
upperneck 8.452400 0.922880 -7.341420
rfemur -37.195400 8.544890 -1.856690
thorax -3.922890 -1.367660 1.181460
rclavicle 0.000000 -0.000000
rtibia 31.362801
lfoot -20.210501 8.593340
lhumerus -34.085602 -10.107200 85.869904
rthumb -7.019700 -388.259003
root 32.940498 18.644800 5.682940 196.487000 -59.771099 170.567993
ltoes -5.004700
lfemur -8.033620 -1.573360 -22.053101
26
upperback -2.205830 -2.977650 0.464444
rfoot -15.189900 -13.674800
lradius 25.247801
lthumb 1.685260 59.828098
rradius 26.581301
lwrist -14.338500
rhand -32.766998 0.927464
rhumerus -52.432400 -9.471110 -76.446999
lowerneck -4.566360 0.894385 4.274180
lhand -24.820200 29.855000
ltibia 26.218300
head 3.546310 0.518050 -2.325990
rwrist 8.329270
lfingers 7.125020
rtoes -2.764840
lowerback 2.260630 -2.204050 -0.944995
rfingers 7.125020
lclavicle -0.000000 -0.000000
upperneck 8.159690 1.217990 -4.856890
rfemur -36.868301 3.964140 13.514800
thorax -3.461740 -1.458980 1.160720
rclavicle -0.000000 -0.000000
rtibia 48.353001
lfoot -20.331301 11.641200
lhumerus -35.853802 6.217310 61.982300
rthumb -5.989270 -388.967987
root 32.821499 18.812901 6.982250 189.985001 -81.859802 176.091995
ltoes -10.260900
lfemur -10.901500 -6.909470 -18.810699
27
upperback -2.403840 -1.628320 0.500988
rfoot -9.797560 -7.013160
lradius 24.917299
lthumb -2.019500 62.061298
rradius 27.888201
lwrist -12.656100
rhand -33.854198 -0.673786
rhumerus -48.273998 -7.708750 -75.391899
lowerneck -4.507240 -0.524939 2.725170
lhand -28.656000 32.091202
ltibia 25.523600
head 2.895160 -0.401358 -1.616660
rwrist 9.248930
lfingers 7.125020
rtoes -4.124760
lowerback 2.099110 -1.196680 -0.850024
rfingers 7.125020
lclavicle -0.000000 0.000000
upperneck 6.633230 -0.684122 -3.426540
rfemur -39.096600 7.270100 20.031500
thorax -3.610370 -0.787361 1.076280
rclavicle -0.000000 0.000000
rtibia 38.405499
lfoot -18.968700 8.770570
lhumerus -41.396999 7.679830 59.808498
rthumb -7.038790 -390.536987
root 31.975201 18.861000 7.800200 26.737900 -87.637901 339.028992
ltoes -2.660570
lfemur -8.609470 -12.552300 -20.109100
28
upperback -2.666840 -1.192670 -0.032905
rfoot -15.615700 -13.166800
lradius 22.242100
lthumb 0.852086 58.892601
rradius 34.103699
lwrist -16.025801
rhand -36.331699 -1.586910
rhumerus -43.870701 -6.623730 -77.330002
lowerneck -5.127100 -1.572780 1.810590
lhand -25.682800 28.914600
ltibia 17.247000
head 2.732020 -1.087050 -1.047950
rwrist 4.953290
lfingers 7.125020
rtoes -10.631500
lowerback 2.563720 -0.836590 -1.282060
rfingers 7.125020
lclavicle 0.000000 0.000000
upperneck 5.914020 -2.121490 -2.022980
rfemur -45.093899 10.230000 15.242000
thorax -4.159610 -0.561656 0.757920
rclavicle 0.000000 0.000000
rtibia 31.176001
lfoot -18.318399 2.346170
lhumerus -49.201000 9.564120 68.819801
rthumb -9.429880 -391.355988
root 30.680201 18.812099 8.309300 8.739570 -84.074501 357.156006
ltoes -2.321850
lfemur -0.450784 -11.440000 -22.083000
